<?xml version="1.0" encoding="utf-8"?>
<!-- Generator: Adobe Illustrator 24.3.0, SVG Export Plug-In . SVG Version: 6.00 Build 0)  -->
<svg version="1.1" id="Layer_1" xmlns="http://www.w3.org/2000/svg" xmlns:xlink="http://www.w3.org/1999/xlink" x="0px" y="0px"
	 viewBox="0 0 512 512" style="enable-background:new 0 0 512 512;" xml:space="preserve">
<style type="text/css">
	.st0{display:none;fill:#3178C6;}
	.st1{fill:#3178C6;}
	.st2{fill-rule:evenodd;clip-rule:evenodd;fill:#FFFFFF;}
</style>
<path class="st0" d="M50,0h412c27.6,0,50,22.4,50,50v412c0,27.6-22.4,50-50,50H50c-27.6,0-50-22.4-50-50V50C0,22.4,22.4,0,50,0z"/>
<path class="st1" d="M72.3,27.7h367.5c24.6,0,44.6,20,44.6,44.6v367.5c0,24.6-20,44.6-44.6,44.6H72.3c-24.6,0-44.6-20-44.6-44.6
	V72.3C27.7,47.6,47.6,27.7,72.3,27.7z"/>
<path class="st2" d="M310.4,391.1v44.7c7.3,3.7,15.8,6.5,25.8,8.4s20.4,2.8,31.3,2.8c10.7,0,20.9-1,30.5-3.1
	c9.6-2,18.1-5.4,25.3-10.1c7.3-4.7,13-10.8,17.2-18.4c4.2-7.6,6.4-17,6.4-28.1c0-8.1-1.2-15.2-3.6-21.3c-2.4-6.1-5.9-11.5-10.5-16.3
	c-4.6-4.7-10-9-16.4-12.8c-6.4-3.8-13.6-7.3-21.6-10.7c-5.9-2.4-11.1-4.8-15.8-7c-4.7-2.3-8.6-4.6-11.9-7c-3.3-2.4-5.8-4.9-7.5-7.5
	c-1.8-2.7-2.7-5.7-2.7-9c0-3.1,0.8-5.8,2.4-8.3c1.6-2.5,3.8-4.6,6.7-6.3c2.9-1.8,6.4-3.1,10.6-4.1c4.2-1,8.8-1.5,14-1.5
	c3.7,0,7.7,0.3,11.8,0.8c4.1,0.6,8.3,1.4,12.5,2.6c4.2,1.2,8.3,2.6,12.2,4.4c4,1.8,7.6,3.8,11,6.1v-41.7c-6.8-2.6-14.2-4.5-22.3-5.8
	c-8-1.3-17.3-1.9-27.7-1.9c-10.6,0-20.7,1.1-30.2,3.4s-17.8,5.8-25.1,10.7c-7.2,4.8-12.9,11-17.1,18.5c-4.2,7.5-6.3,16.4-6.3,26.9
	c0,13.3,3.8,24.7,11.5,34c7.7,9.4,19.3,17.3,35,23.9c6.1,2.5,11.9,5,17.2,7.4c5.3,2.4,9.9,4.9,13.7,7.5c3.9,2.6,6.9,5.4,9.1,8.5
	c2.2,3.1,3.4,6.6,3.4,10.5c0,2.9-0.7,5.6-2.1,8c-1.4,2.5-3.5,4.6-6.4,6.4c-2.8,1.8-6.4,3.2-10.6,4.3c-4.2,1-9.2,1.5-14.9,1.5
	c-9.7,0-19.3-1.7-28.8-5.1C327.2,402.9,318.5,397.9,310.4,391.1L310.4,391.1z M235.3,281h57.3v-36.6H132.9V281h57v163.2h45.4V281z"
	/>
</svg>
